<mxfile host="app.diagrams.net" agent="Mozilla/5.0 (Windows NT 10.0; Win64; x64) AppleWebKit/537.36 (KHTML, like Gecko) Chrome/138.0.0.0 Safari/537.36" version="28.0.7">
  <diagram name="Page-1" id="HQzrGR4w43ZozcDYIBPD">
    <mxGraphModel dx="1426" dy="751" grid="1" gridSize="10" guides="1" tooltips="1" connect="1" arrows="1" fold="1" page="1" pageScale="1" pageWidth="827" pageHeight="1169" math="0" shadow="0">
      <root>
        <mxCell id="0" />
        <mxCell id="1" parent="0" />
        <mxCell id="36zjTgQ_xW7Z8hQ5xMNH-12" style="edgeStyle=orthogonalEdgeStyle;rounded=0;orthogonalLoop=1;jettySize=auto;html=1;exitX=0.5;exitY=0;exitDx=0;exitDy=0;entryX=0.5;entryY=0;entryDx=0;entryDy=0;" parent="1" source="36zjTgQ_xW7Z8hQ5xMNH-4" target="36zjTgQ_xW7Z8hQ5xMNH-5" edge="1">
          <mxGeometry relative="1" as="geometry" />
        </mxCell>
        <mxCell id="36zjTgQ_xW7Z8hQ5xMNH-67" style="edgeStyle=orthogonalEdgeStyle;rounded=0;orthogonalLoop=1;jettySize=auto;html=1;exitX=0.5;exitY=1;exitDx=0;exitDy=0;entryX=0.5;entryY=0;entryDx=0;entryDy=0;" parent="1" source="36zjTgQ_xW7Z8hQ5xMNH-4" target="36zjTgQ_xW7Z8hQ5xMNH-18" edge="1">
          <mxGeometry relative="1" as="geometry" />
        </mxCell>
        <mxCell id="36zjTgQ_xW7Z8hQ5xMNH-4" value="" style="rounded=1;whiteSpace=wrap;html=1;fillColor=#dae8fc;strokeColor=#6c8ebf;shadow=1;" parent="1" vertex="1">
          <mxGeometry x="320" y="120" width="200" height="220" as="geometry" />
        </mxCell>
        <mxCell id="36zjTgQ_xW7Z8hQ5xMNH-9" style="edgeStyle=orthogonalEdgeStyle;rounded=0;orthogonalLoop=1;jettySize=auto;html=1;exitX=0.5;exitY=1;exitDx=0;exitDy=0;entryX=0.5;entryY=0;entryDx=0;entryDy=0;" parent="1" source="36zjTgQ_xW7Z8hQ5xMNH-5" target="36zjTgQ_xW7Z8hQ5xMNH-6" edge="1">
          <mxGeometry relative="1" as="geometry" />
        </mxCell>
        <mxCell id="36zjTgQ_xW7Z8hQ5xMNH-5" value="Layer 1&lt;div&gt;(Largest)&lt;/div&gt;" style="rounded=1;whiteSpace=wrap;html=1;shadow=1;" parent="1" vertex="1">
          <mxGeometry x="330" y="130" width="180" height="60" as="geometry" />
        </mxCell>
        <mxCell id="36zjTgQ_xW7Z8hQ5xMNH-10" style="edgeStyle=orthogonalEdgeStyle;rounded=0;orthogonalLoop=1;jettySize=auto;html=1;exitX=0.5;exitY=1;exitDx=0;exitDy=0;entryX=0.5;entryY=0;entryDx=0;entryDy=0;" parent="1" source="36zjTgQ_xW7Z8hQ5xMNH-6" target="36zjTgQ_xW7Z8hQ5xMNH-7" edge="1">
          <mxGeometry relative="1" as="geometry" />
        </mxCell>
        <mxCell id="36zjTgQ_xW7Z8hQ5xMNH-6" value="Layer 2" style="rounded=1;whiteSpace=wrap;html=1;shadow=1;" parent="1" vertex="1">
          <mxGeometry x="350" y="200" width="140" height="60" as="geometry" />
        </mxCell>
        <mxCell id="36zjTgQ_xW7Z8hQ5xMNH-7" value="&lt;div&gt;Layer 3&lt;/div&gt;&lt;div&gt;(Smallest)&lt;/div&gt;" style="rounded=1;whiteSpace=wrap;html=1;shadow=1;" parent="1" vertex="1">
          <mxGeometry x="380" y="270" width="80" height="60" as="geometry" />
        </mxCell>
        <mxCell id="36zjTgQ_xW7Z8hQ5xMNH-68" style="edgeStyle=orthogonalEdgeStyle;rounded=0;orthogonalLoop=1;jettySize=auto;html=1;exitX=0.5;exitY=1;exitDx=0;exitDy=0;entryX=0.5;entryY=0;entryDx=0;entryDy=0;shadow=1;" parent="1" source="36zjTgQ_xW7Z8hQ5xMNH-15" target="36zjTgQ_xW7Z8hQ5xMNH-4" edge="1">
          <mxGeometry relative="1" as="geometry" />
        </mxCell>
        <mxCell id="36zjTgQ_xW7Z8hQ5xMNH-15" value="Input Data" style="shape=parallelogram;perimeter=parallelogramPerimeter;whiteSpace=wrap;html=1;fixedSize=1;shadow=1;rounded=1;" parent="1" vertex="1">
          <mxGeometry x="360" y="30" width="120" height="60" as="geometry" />
        </mxCell>
        <mxCell id="36zjTgQ_xW7Z8hQ5xMNH-65" style="edgeStyle=orthogonalEdgeStyle;rounded=0;orthogonalLoop=1;jettySize=auto;html=1;exitX=0.5;exitY=1;exitDx=0;exitDy=0;entryX=0.5;entryY=0;entryDx=0;entryDy=0;" parent="1" source="36zjTgQ_xW7Z8hQ5xMNH-18" target="36zjTgQ_xW7Z8hQ5xMNH-21" edge="1">
          <mxGeometry relative="1" as="geometry" />
        </mxCell>
        <mxCell id="36zjTgQ_xW7Z8hQ5xMNH-18" value="Latent Space Representation" style="shape=parallelogram;perimeter=parallelogramPerimeter;whiteSpace=wrap;html=1;fixedSize=1;shadow=1;rounded=1;" parent="1" vertex="1">
          <mxGeometry x="360" y="370" width="120" height="60" as="geometry" />
        </mxCell>
        <mxCell id="36zjTgQ_xW7Z8hQ5xMNH-63" style="edgeStyle=orthogonalEdgeStyle;rounded=0;orthogonalLoop=1;jettySize=auto;html=1;exitX=0.5;exitY=1;exitDx=0;exitDy=0;entryX=0.5;entryY=0;entryDx=0;entryDy=0;shadow=1;" parent="1" source="36zjTgQ_xW7Z8hQ5xMNH-21" target="36zjTgQ_xW7Z8hQ5xMNH-31" edge="1">
          <mxGeometry relative="1" as="geometry" />
        </mxCell>
        <mxCell id="36zjTgQ_xW7Z8hQ5xMNH-21" value="" style="rounded=1;whiteSpace=wrap;html=1;fillColor=#ffe6cc;strokeColor=#d79b00;shadow=1;" parent="1" vertex="1">
          <mxGeometry x="322.04" y="460" width="200" height="220" as="geometry" />
        </mxCell>
        <mxCell id="36zjTgQ_xW7Z8hQ5xMNH-23" value="Layer 3&lt;div&gt;(Largest)&lt;/div&gt;" style="rounded=1;whiteSpace=wrap;html=1;shadow=1;" parent="1" vertex="1">
          <mxGeometry x="332.04" y="610" width="180" height="60" as="geometry" />
        </mxCell>
        <mxCell id="36zjTgQ_xW7Z8hQ5xMNH-29" style="edgeStyle=orthogonalEdgeStyle;rounded=0;orthogonalLoop=1;jettySize=auto;html=1;exitX=0.5;exitY=1;exitDx=0;exitDy=0;entryX=0.5;entryY=0;entryDx=0;entryDy=0;" parent="1" source="36zjTgQ_xW7Z8hQ5xMNH-25" target="36zjTgQ_xW7Z8hQ5xMNH-23" edge="1">
          <mxGeometry relative="1" as="geometry" />
        </mxCell>
        <mxCell id="36zjTgQ_xW7Z8hQ5xMNH-25" value="Layer 2" style="rounded=1;whiteSpace=wrap;html=1;shadow=1;" parent="1" vertex="1">
          <mxGeometry x="352.04" y="540" width="140" height="60" as="geometry" />
        </mxCell>
        <mxCell id="36zjTgQ_xW7Z8hQ5xMNH-28" style="edgeStyle=orthogonalEdgeStyle;rounded=0;orthogonalLoop=1;jettySize=auto;html=1;exitX=0.5;exitY=1;exitDx=0;exitDy=0;entryX=0.5;entryY=0;entryDx=0;entryDy=0;" parent="1" target="36zjTgQ_xW7Z8hQ5xMNH-25" edge="1">
          <mxGeometry relative="1" as="geometry">
            <mxPoint x="422.03999999999996" y="530" as="sourcePoint" />
          </mxGeometry>
        </mxCell>
        <mxCell id="PHoVdw54TPyB4PMgeGFq-2" style="edgeStyle=orthogonalEdgeStyle;rounded=0;orthogonalLoop=1;jettySize=auto;html=1;exitX=1;exitY=0.5;exitDx=0;exitDy=0;entryX=0;entryY=0.5;entryDx=0;entryDy=0;shadow=1;" parent="1" source="36zjTgQ_xW7Z8hQ5xMNH-31" target="PHoVdw54TPyB4PMgeGFq-1" edge="1">
          <mxGeometry relative="1" as="geometry" />
        </mxCell>
        <mxCell id="36zjTgQ_xW7Z8hQ5xMNH-31" value="Reconstructed&amp;nbsp;&lt;div&gt;Data&lt;/div&gt;" style="shape=parallelogram;perimeter=parallelogramPerimeter;whiteSpace=wrap;html=1;fixedSize=1;shadow=1;rounded=1;" parent="1" vertex="1">
          <mxGeometry x="362.04" y="700" width="120" height="60" as="geometry" />
        </mxCell>
        <mxCell id="36zjTgQ_xW7Z8hQ5xMNH-33" value="" style="shape=partialRectangle;whiteSpace=wrap;html=1;bottom=1;right=1;left=1;top=0;fillColor=none;routingCenterX=-0.5;rotation=90;strokeWidth=3;shadow=1;" parent="1" vertex="1">
          <mxGeometry x="171.1" y="202.34" width="237.82" height="60" as="geometry" />
        </mxCell>
        <mxCell id="36zjTgQ_xW7Z8hQ5xMNH-34" value="" style="shape=partialRectangle;whiteSpace=wrap;html=1;bottom=1;right=1;left=1;top=0;fillColor=none;routingCenterX=-0.5;rotation=90;strokeWidth=3;shadow=1;" parent="1" vertex="1">
          <mxGeometry x="167.26" y="540" width="245.5" height="60" as="geometry" />
        </mxCell>
        <mxCell id="36zjTgQ_xW7Z8hQ5xMNH-49" style="edgeStyle=orthogonalEdgeStyle;rounded=0;orthogonalLoop=1;jettySize=auto;html=1;exitX=0.5;exitY=1;exitDx=0;exitDy=0;shadow=1;" parent="1" source="36zjTgQ_xW7Z8hQ5xMNH-35" edge="1">
          <mxGeometry relative="1" as="geometry">
            <mxPoint x="200" y="400" as="targetPoint" />
          </mxGeometry>
        </mxCell>
        <mxCell id="36zjTgQ_xW7Z8hQ5xMNH-35" value="" style="shape=partialRectangle;whiteSpace=wrap;html=1;bottom=1;right=1;left=1;top=0;fillColor=none;routingCenterX=-0.5;rotation=90;strokeWidth=3;shadow=1;" parent="1" vertex="1">
          <mxGeometry x="247.97" y="369.84" width="84.07" height="60" as="geometry" />
        </mxCell>
        <mxCell id="36zjTgQ_xW7Z8hQ5xMNH-39" value="Layer 1&lt;div&gt;(Smallest)&lt;/div&gt;" style="rounded=1;whiteSpace=wrap;html=1;shadow=1;" parent="1" vertex="1">
          <mxGeometry x="380" y="470" width="80" height="60" as="geometry" />
        </mxCell>
        <mxCell id="36zjTgQ_xW7Z8hQ5xMNH-42" value="&lt;b&gt;&lt;font style=&quot;font-size: 21px;&quot;&gt;Encoder&lt;/font&gt;&lt;/b&gt;" style="text;strokeColor=none;align=center;fillColor=none;html=1;verticalAlign=middle;whiteSpace=wrap;rounded=0;" parent="1" vertex="1">
          <mxGeometry x="120" y="218.44" width="60" height="30" as="geometry" />
        </mxCell>
        <mxCell id="36zjTgQ_xW7Z8hQ5xMNH-45" value="&lt;b&gt;&lt;font style=&quot;font-size: 21px;&quot;&gt;&quot;Bottleneck&quot;&lt;/font&gt;&lt;/b&gt;" style="text;strokeColor=none;align=center;fillColor=none;html=1;verticalAlign=middle;whiteSpace=wrap;rounded=0;" parent="1" vertex="1">
          <mxGeometry x="100" y="384.84" width="60" height="30" as="geometry" />
        </mxCell>
        <mxCell id="36zjTgQ_xW7Z8hQ5xMNH-60" style="edgeStyle=orthogonalEdgeStyle;rounded=0;orthogonalLoop=1;jettySize=auto;html=1;exitX=0.5;exitY=1;exitDx=0;exitDy=0;shadow=1;" parent="1" edge="1">
          <mxGeometry relative="1" as="geometry">
            <mxPoint x="200" y="580" as="targetPoint" />
            <mxPoint x="260" y="580" as="sourcePoint" />
          </mxGeometry>
        </mxCell>
        <mxCell id="36zjTgQ_xW7Z8hQ5xMNH-61" value="&lt;b&gt;&lt;font style=&quot;font-size: 21px;&quot;&gt;Decoder&lt;/font&gt;&lt;/b&gt;" style="text;strokeColor=none;align=center;fillColor=none;html=1;verticalAlign=middle;whiteSpace=wrap;rounded=0;" parent="1" vertex="1">
          <mxGeometry x="90" y="540" width="130" height="80" as="geometry" />
        </mxCell>
        <mxCell id="PHoVdw54TPyB4PMgeGFq-3" style="edgeStyle=orthogonalEdgeStyle;rounded=0;orthogonalLoop=1;jettySize=auto;html=1;exitX=0.5;exitY=0;exitDx=0;exitDy=0;entryX=1;entryY=0.455;entryDx=0;entryDy=0;entryPerimeter=0;fillColor=#ffe6cc;strokeColor=#d79b00;dashed=1;shadow=1;strokeWidth=3;" parent="1" source="PHoVdw54TPyB4PMgeGFq-1" target="36zjTgQ_xW7Z8hQ5xMNH-21" edge="1">
          <mxGeometry relative="1" as="geometry">
            <mxPoint x="620" y="560" as="targetPoint" />
          </mxGeometry>
        </mxCell>
        <mxCell id="PHoVdw54TPyB4PMgeGFq-4" style="edgeStyle=orthogonalEdgeStyle;rounded=0;orthogonalLoop=1;jettySize=auto;html=1;exitX=0.5;exitY=0;exitDx=0;exitDy=0;entryX=1;entryY=0.5;entryDx=0;entryDy=0;fillColor=#dae8fc;strokeColor=#6c8ebf;dashed=1;shadow=1;strokeWidth=3;" parent="1" source="PHoVdw54TPyB4PMgeGFq-1" target="36zjTgQ_xW7Z8hQ5xMNH-4" edge="1">
          <mxGeometry relative="1" as="geometry" />
        </mxCell>
        <mxCell id="PHoVdw54TPyB4PMgeGFq-5" value="Back&lt;div&gt;propagate&lt;/div&gt;" style="edgeLabel;html=1;align=center;verticalAlign=middle;resizable=0;points=[];" parent="PHoVdw54TPyB4PMgeGFq-4" vertex="1" connectable="0">
          <mxGeometry x="-0.2456" y="-5" relative="1" as="geometry">
            <mxPoint x="-55" y="55" as="offset" />
          </mxGeometry>
        </mxCell>
        <mxCell id="PHoVdw54TPyB4PMgeGFq-1" value="Reconstruction&amp;nbsp;&lt;div&gt;Loss&lt;/div&gt;" style="rounded=1;whiteSpace=wrap;html=1;shadow=1;" parent="1" vertex="1">
          <mxGeometry x="560" y="700" width="120" height="60" as="geometry" />
        </mxCell>
        <mxCell id="PHoVdw54TPyB4PMgeGFq-7" value="Back&lt;div&gt;propagate&lt;/div&gt;" style="edgeLabel;html=1;align=center;verticalAlign=middle;resizable=0;points=[];" parent="1" vertex="1" connectable="0">
          <mxGeometry x="580" y="230" as="geometry">
            <mxPoint x="-6" y="-21" as="offset" />
          </mxGeometry>
        </mxCell>
        <mxCell id="PHoVdw54TPyB4PMgeGFq-8" style="edgeStyle=orthogonalEdgeStyle;rounded=0;orthogonalLoop=1;jettySize=auto;html=1;exitX=0.5;exitY=1;exitDx=0;exitDy=0;shadow=1;" parent="1" edge="1">
          <mxGeometry relative="1" as="geometry">
            <mxPoint x="200" y="232.94" as="targetPoint" />
            <mxPoint x="260" y="232.94" as="sourcePoint" />
          </mxGeometry>
        </mxCell>
      </root>
    </mxGraphModel>
  </diagram>
</mxfile>
